# xmcd
#
# Track frame offsets:
#	150
#	17137
#	39543
#	48147
#	57822
#	62580
#	75839
#	85097
#	93283
#	109823
#	124439
#	140329
#	153223
#	169849
#	186646
#	196437
#	210023
#	222132
#	239985
#	256069
#	266781
#	276954
#	289768
#
# Disc length: 4037 seconds
#
# Revision: 0
# Processed by: cddbd v1.5PL3 Copyright (c) Steve Scherf et al.
# Submitted via: EasyCDDAExtractor 4.5.0.2
#
DISCID=480fc317
DTITLE=Elvis Presley - Steamroller Blues - Recorded live in Menphis march, 20 
DTITLE=1974
DYEAR=1974
DGENRE=Blues
TTITLE0=2001 theme - C C Rider
TTITLE1=I Got A Woman
TTITLE2=Love Me
TTITLE3=Tryin' To Get To You
TTITLE4=All Shock Up
TTITLE5=Steamroller Blues
TTITLE6=Teddy Bear - Don't Be Cruel
TTITLE7=Love Me Tender
TTITLE8=Long Tall Sally - Whole Lotta Shakin' - Mama Don't Dancing - Flip Flop
TTITLE8=and Fly - Jailhouse Rock - Hound Dog
TTITLE9=Fever
TTITLE10=Polk Salad Annie
TTITLE11=Why Me Lord
TTITLE12=How Great Thou Art
TTITLE13=Suspicious Minds
TTITLE14=Band Introductions
TTITLE15=Blueberry Hills - I Can't Stop Loving You
TTITLE16=Help Me
TTITLE17=An American Trilogy
TTITLE18=Let Me BE There
TTITLE19=My Baby Left Me
TTITLE20=Lawdy Miss Clawdy
TTITLE21=Funny How Time Sleep Away
TTITLE22=Can't Help Falling In Love - Closing Vamp
EXTD=
EXTT0=
EXTT1=
EXTT2=
EXTT3=
EXTT4=
EXTT5=
EXTT6=
EXTT7=
EXTT8=
EXTT9=
EXTT10=
EXTT11=
EXTT12=
EXTT13=
EXTT14=
EXTT15=
EXTT16=
EXTT17=
EXTT18=
EXTT19=
EXTT20=
EXTT21=
EXTT22=
PLAYORDER=
